<svg width="32" height="37" fill="#63d1bb" xmlns="http://www.w3.org/2000/svg"><path d="M16 37c8.8 0 16-7.161 16-15.914-8.8 0-16 7.062-16 15.914zM4.6 16.212c0 2.487 2 4.377 4.4 4.377.9 0 1.8-.299 2.5-.796v.298c0 2.487 2 4.377 4.4 4.377 2.5 0 4.4-1.99 4.4-4.377v-.298c.7.497 1.6.796 2.5.796 2.5 0 4.4-1.99 4.4-4.377 0-1.79-1-3.282-2.5-3.978 1.5-.696 2.5-2.188 2.5-3.979 0-2.486-2-4.376-4.4-4.376-.9 0-1.8.298-2.5.796v-.299C20.3 1.89 18.3 0 15.9 0c-2.5 0-4.4 1.99-4.4 4.376v.299c-.7-.498-1.6-.796-2.5-.796-2.5 0-4.4 1.99-4.4 4.376 0 1.79 1 3.283 2.5 3.979-1.4.696-2.5 2.188-2.5 3.978zM16 7.758c2.5 0 4.4 1.99 4.4 4.376 0 2.487-2 4.377-4.4 4.377-2.5 0-4.4-1.99-4.4-4.377 0-2.387 1.9-4.376 4.4-4.376zM0 21.086C0 29.839 7.2 37 16 37c0-8.852-7.2-15.914-16-15.914z"/></svg>
